<svg xmlns="http://www.w3.org/2000/svg" viewBox="0 0 442 200" role="img" aria-labelledby="title desc">
<title id="title">Job-shop schedule example</title>
<desc id="desc">A compact Gantt chart generated from the ft06_small baseline schedule.</desc>
<rect width="100%" height="100%" fill="#ffffff"/>
<text x="24" y="28" font-family="Inter, Arial, sans-serif" font-size="16" font-weight="700" fill="#1f2937">ft06_small baseline schedule</text>
<line x1="80" y1="38" x2="80" y2="142" stroke="#e5e7eb" stroke-width="1"/>
<text x="80" y="182" text-anchor="middle" font-family="Inter, Arial, sans-serif" font-size="10" fill="#64748b">0</text>
<line x1="128" y1="38" x2="128" y2="142" stroke="#e5e7eb" stroke-width="1"/>
<text x="128" y="182" text-anchor="middle" font-family="Inter, Arial, sans-serif" font-size="10" fill="#64748b">2</text>
<line x1="176" y1="38" x2="176" y2="142" stroke="#e5e7eb" stroke-width="1"/>
<text x="176" y="182" text-anchor="middle" font-family="Inter, Arial, sans-serif" font-size="10" fill="#64748b">4</text>
<line x1="224" y1="38" x2="224" y2="142" stroke="#e5e7eb" stroke-width="1"/>
<text x="224" y="182" text-anchor="middle" font-family="Inter, Arial, sans-serif" font-size="10" fill="#64748b">6</text>
<line x1="272" y1="38" x2="272" y2="142" stroke="#e5e7eb" stroke-width="1"/>
<text x="272" y="182" text-anchor="middle" font-family="Inter, Arial, sans-serif" font-size="10" fill="#64748b">8</text>
<line x1="320" y1="38" x2="320" y2="142" stroke="#e5e7eb" stroke-width="1"/>
<text x="320" y="182" text-anchor="middle" font-family="Inter, Arial, sans-serif" font-size="10" fill="#64748b">10</text>
<line x1="368" y1="38" x2="368" y2="142" stroke="#e5e7eb" stroke-width="1"/>
<text x="368" y="182" text-anchor="middle" font-family="Inter, Arial, sans-serif" font-size="10" fill="#64748b">12</text>
<line x1="416" y1="38" x2="416" y2="142" stroke="#e5e7eb" stroke-width="1"/>
<text x="416" y="182" text-anchor="middle" font-family="Inter, Arial, sans-serif" font-size="10" fill="#64748b">14</text>
<text x="24" y="64" font-family="Inter, Arial, sans-serif" font-size="12" font-weight="600" fill="#475569">M0</text>
<line x1="80" y1="74" x2="416" y2="74" stroke="#eef2f7" stroke-width="1"/>
<text x="24" y="98" font-family="Inter, Arial, sans-serif" font-size="12" font-weight="600" fill="#475569">M1</text>
<line x1="80" y1="108" x2="416" y2="108" stroke="#eef2f7" stroke-width="1"/>
<text x="24" y="132" font-family="Inter, Arial, sans-serif" font-size="12" font-weight="600" fill="#475569">M2</text>
<line x1="80" y1="142" x2="416" y2="142" stroke="#eef2f7" stroke-width="1"/>
<rect x="80" y="48" width="48" height="20" rx="4" fill="#0f766e" opacity="0.88"/>
<text x="104.0" y="62" text-anchor="middle" font-family="Inter, Arial, sans-serif" font-size="10" font-weight="700" fill="#ffffff">J1.0</text>
<rect x="80" y="82" width="96" height="20" rx="4" fill="#2563eb" opacity="0.88"/>
<text x="128.0" y="96" text-anchor="middle" font-family="Inter, Arial, sans-serif" font-size="10" font-weight="700" fill="#ffffff">J2.0</text>
<rect x="80" y="116" width="48" height="20" rx="4" fill="#c2410c" opacity="0.88"/>
<text x="104.0" y="130" text-anchor="middle" font-family="Inter, Arial, sans-serif" font-size="10" font-weight="700" fill="#ffffff">J3.0</text>
<rect x="128" y="48" width="72" height="20" rx="4" fill="#7c3aed" opacity="0.88"/>
<text x="164.0" y="62" text-anchor="middle" font-family="Inter, Arial, sans-serif" font-size="10" font-weight="700" fill="#ffffff">J0.0</text>
<rect x="128" y="116" width="24" height="20" rx="4" fill="#0f766e" opacity="0.88"/>
<rect x="176" y="116" width="72" height="20" rx="4" fill="#2563eb" opacity="0.88"/>
<text x="212.0" y="130" text-anchor="middle" font-family="Inter, Arial, sans-serif" font-size="10" font-weight="700" fill="#ffffff">J2.1</text>
<rect x="200" y="82" width="48" height="20" rx="4" fill="#7c3aed" opacity="0.88"/>
<text x="224.0" y="96" text-anchor="middle" font-family="Inter, Arial, sans-serif" font-size="10" font-weight="700" fill="#ffffff">J0.1</text>
<rect x="248" y="82" width="72" height="20" rx="4" fill="#c2410c" opacity="0.88"/>
<text x="284.0" y="96" text-anchor="middle" font-family="Inter, Arial, sans-serif" font-size="10" font-weight="700" fill="#ffffff">J3.1</text>
<rect x="248" y="48" width="48" height="20" rx="4" fill="#2563eb" opacity="0.88"/>
<text x="272.0" y="62" text-anchor="middle" font-family="Inter, Arial, sans-serif" font-size="10" font-weight="700" fill="#ffffff">J2.2</text>
<rect x="320" y="82" width="96" height="20" rx="4" fill="#0f766e" opacity="0.88"/>
<text x="368.0" y="96" text-anchor="middle" font-family="Inter, Arial, sans-serif" font-size="10" font-weight="700" fill="#ffffff">J1.2</text>
<rect x="248" y="116" width="48" height="20" rx="4" fill="#7c3aed" opacity="0.88"/>
<text x="272.0" y="130" text-anchor="middle" font-family="Inter, Arial, sans-serif" font-size="10" font-weight="700" fill="#ffffff">J0.2</text>
<rect x="320" y="48" width="24" height="20" rx="4" fill="#c2410c" opacity="0.88"/>
<text x="80" y="166" font-family="Inter, Arial, sans-serif" font-size="11" fill="#64748b">Generated from the baseline evaluator output for one tutorial case. Time runs left to right.</text>
</svg>
