<svg xmlns="http://www.w3.org/2000/svg" width="16" height="16" viewBox="0 0 16 16" fill="none" color="#1E2228">
  <title>Assistant</title>
  <circle cx="8" cy="1.55" r="0.75" fill="currentColor"/>
  <rect x="7.35" y="2.15" width="1.3" height="1.9" rx="0.65" fill="currentColor"/>
  <rect x="1.1" y="6.15" width="1.55" height="3.7" rx="0.775" fill="currentColor"/>
  <rect x="13.35" y="6.15" width="1.55" height="3.7" rx="0.775" fill="currentColor"/>
  <path fill="currentColor" fill-rule="evenodd" clip-rule="evenodd" d="M4.45 3.35h7.1a2.35 2.35 0 0 1 2.35 2.35v5.6a2.35 2.35 0 0 1-2.35 2.35h-7.1A2.35 2.35 0 0 1 2.1 11.3V5.7a2.35 2.35 0 0 1 2.35-2.35Zm.55 1.6h6a1.3 1.3 0 0 1 1.3 1.3v4.5a1.3 1.3 0 0 1-1.3 1.3H5a1.3 1.3 0 0 1-1.3-1.3v-4.5A1.3 1.3 0 0 1 5 4.95Z"/>
  <circle cx="6.15" cy="7.65" r="0.72" fill="currentColor"/>
  <circle cx="9.85" cy="7.65" r="0.72" fill="currentColor"/>
  <rect x="6.1" y="9.55" width="3.8" height="1.05" rx="0.525" fill="currentColor"/>
</svg>
