<svg xmlns="http://www.w3.org/2000/svg" width="16" height="16" viewBox="0 0 16 16" fill="none" color="#1E2228">
  <title>Catalog</title>
  <path fill="currentColor" d="M2.75 1.55h3.5c.66 0 1.2.54 1.2 1.2v3.5c0 .66-.54 1.2-1.2 1.2h-3.5c-.66 0-1.2-.54-1.2-1.2v-3.5c0-.66.54-1.2 1.2-1.2Zm7 0h3.5c.66 0 1.2.54 1.2 1.2v3.5c0 .66-.54 1.2-1.2 1.2h-3.5c-.66 0-1.2-.54-1.2-1.2v-3.5c0-.66.54-1.2 1.2-1.2Zm-7 7h3.5c.66 0 1.2.54 1.2 1.2v3.5c0 .66-.54 1.2-1.2 1.2h-3.5c-.66 0-1.2-.54-1.2-1.2v-3.5c0-.66.54-1.2 1.2-1.2Zm7 0h3.5c.66 0 1.2.54 1.2 1.2v3.5c0 .66-.54 1.2-1.2 1.2h-3.5c-.66 0-1.2-.54-1.2-1.2v-3.5c0-.66.54-1.2 1.2-1.2Z"/>
</svg>
