<svg xmlns="http://www.w3.org/2000/svg" width="16" height="16" viewBox="0 0 16 16" fill="none" color="#1E2228">
  <title>Settings</title>
  <path d="M 6.234 3.330 L 6.506 2.975 Q 6.615 2.832 6.649 2.656 L 6.829 1.726 Q 6.863 1.550 7.043 1.550 L 8.957 1.550 Q 9.137 1.550 9.171 1.726 L 9.351 2.656 Q 9.385 2.832 9.494 2.975 L 9.766 3.330 Q 9.875 3.473 10.054 3.449 L 10.497 3.390 Q 10.675 3.367 10.824 3.266 L 11.608 2.735 Q 11.757 2.635 11.884 2.762 L 13.238 4.116 Q 13.365 4.243 13.265 4.392 L 12.734 5.176 Q 12.633 5.325 12.610 5.503 L 12.551 5.946 Q 12.527 6.125 12.670 6.234 L 13.025 6.506 Q 13.168 6.615 13.344 6.649 L 14.274 6.829 Q 14.450 6.863 14.450 7.043 L 14.450 8.957 Q 14.450 9.137 14.274 9.171 L 13.344 9.351 Q 13.168 9.385 13.025 9.494 L 12.670 9.766 Q 12.527 9.875 12.551 10.054 L 12.610 10.497 Q 12.633 10.675 12.734 10.824 L 13.265 11.608 Q 13.365 11.757 13.238 11.884 L 11.884 13.238 Q 11.757 13.365 11.608 13.265 L 10.824 12.734 Q 10.675 12.633 10.497 12.610 L 10.054 12.551 Q 9.875 12.527 9.766 12.670 L 9.494 13.025 Q 9.385 13.168 9.351 13.344 L 9.171 14.274 Q 9.137 14.450 8.957 14.450 L 7.043 14.450 Q 6.863 14.450 6.829 14.274 L 6.649 13.344 Q 6.615 13.168 6.506 13.025 L 6.234 12.670 Q 6.125 12.527 5.946 12.551 L 5.503 12.610 Q 5.325 12.633 5.176 12.734 L 4.392 13.265 Q 4.243 13.365 4.116 13.238 L 2.762 11.884 Q 2.635 11.757 2.735 11.608 L 3.266 10.824 Q 3.367 10.675 3.390 10.497 L 3.449 10.054 Q 3.473 9.875 3.330 9.766 L 2.975 9.494 Q 2.832 9.385 2.656 9.351 L 1.726 9.171 Q 1.550 9.137 1.550 8.957 L 1.550 7.043 Q 1.550 6.863 1.726 6.829 L 2.656 6.649 Q 2.832 6.615 2.975 6.506 L 3.330 6.234 Q 3.473 6.125 3.449 5.946 L 3.390 5.503 Q 3.367 5.325 3.266 5.176 L 2.735 4.392 Q 2.635 4.243 2.762 4.116 L 4.116 2.762 Q 4.243 2.635 4.392 2.735 L 5.176 3.266 Q 5.325 3.367 5.503 3.390 L 5.946 3.449 Q 6.125 3.473 6.234 3.330 Z M 10.75 8 A 2.75 2.75 0 1 1 5.25 8 A 2.75 2.75 0 1 1 10.75 8 Z" fill="currentColor" fill-rule="evenodd" clip-rule="evenodd"/>
  <circle cx="8" cy="8" r="0.95" fill="currentColor"/>
</svg>
